<?xml version="1.0" encoding="utf-8"?>
<!-- Generator: Adobe Illustrator 22.1.0, SVG Export Plug-In . SVG Version: 6.00 Build 0)  -->
<svg version="1.1" id="Layer_1" xmlns="http://www.w3.org/2000/svg" xmlns:xlink="http://www.w3.org/1999/xlink" x="0px" y="0px"
	 viewBox="0 0 1286 769" style="enable-background:new 0 0 1286 769;" xml:space="preserve">
<style type="text/css">
	.st0{fill:#FFFFFF;}
</style>
<path class="st0" d="M133,766c-3-3-3-4-3-7l206-338L546,80c24-36,63-63,105-74c20-6,27-6,85-6h54l2,2c3,4,3,7,1,12L379,689
	c-31,44.1-79.4,72.8-133,79l-60,1h-50L133,766z M625,766l-3-6c137.6-226.8,276-453.1,415-679c25-37,63-64,106-75c20-6,27-6,85-6h54
	l2,2c5,6,19-17-205,348L867,693c-7,10-23,27-32,34c-16,13-37,25-56,32c-11,4-29,8-41,9l-60,1h-50L625,766z M97,229
	C34.7,219.9-8.5,162.1,0.6,99.8C1.6,93.4,3,87.1,5,81c10-28,32-53,57-64c18-8,50-13,91-16h108c13,1,13,1,16,3l2,6l-7,23
	c-32,90-65,152-91,174C160,224,127,233,97,229z"/>
</svg>
